<mxfile host="65bd71144e">
    <diagram id="jGEs0Rvqi28DxtKOstpk" name="Page-1">
        <mxGraphModel dx="1587" dy="917" grid="1" gridSize="10" guides="1" tooltips="1" connect="1" arrows="1" fold="1" page="1" pageScale="1" pageWidth="1200" pageHeight="1920" background="#ffffff" math="0" shadow="0">
            <root>
                <mxCell id="0"/>
                <mxCell id="1" parent="0"/>
                <mxCell id="6" value="" style="shape=actor;whiteSpace=wrap;html=1;" parent="1" vertex="1">
                    <mxGeometry x="1080" y="400" width="40" height="60" as="geometry"/>
                </mxCell>
                <mxCell id="8" value="" style="rounded=0;whiteSpace=wrap;html=1;dashed=1;" parent="1" vertex="1">
                    <mxGeometry x="30" y="20" width="520" height="330" as="geometry"/>
                </mxCell>
                <mxCell id="7" value="Customer" style="text;html=1;align=center;verticalAlign=middle;resizable=0;points=[];autosize=1;strokeColor=none;fillColor=none;" parent="1" vertex="1">
                    <mxGeometry x="1070" y="470" width="70" height="20" as="geometry"/>
                </mxCell>
                <mxCell id="9" value="Iaas" style="rounded=0;whiteSpace=wrap;html=1;" parent="1" vertex="1">
                    <mxGeometry x="10" y="10" width="70" height="30" as="geometry"/>
                </mxCell>
                <mxCell id="10" value="" style="shape=cylinder3;html=1;boundedLbl=1;backgroundOutline=1;size=15;" vertex="1" parent="1">
                    <mxGeometry x="80" y="60" width="60" height="80" as="geometry"/>
                </mxCell>
                <mxCell id="11" value="&lt;div style=&quot;text-align: left&quot;&gt;Database&lt;/div&gt;" style="text;html=1;strokeColor=none;fillColor=none;align=center;verticalAlign=middle;whiteSpace=wrap;rounded=0;" vertex="1" parent="1">
                    <mxGeometry x="55" y="150" width="110" height="30" as="geometry"/>
                </mxCell>
                <mxCell id="12" value="&lt;div&gt;1. Cloud Storage&lt;/div&gt;&lt;div&gt;2. Cloud SQL&lt;/div&gt;&lt;div&gt;3. Cloud Spanner&lt;/div&gt;&lt;div&gt;4. Fire Store&lt;/div&gt;&lt;div&gt;5. Cloud Bigtable&lt;/div&gt;" style="text;html=1;strokeColor=none;fillColor=none;align=left;verticalAlign=middle;whiteSpace=wrap;rounded=0;" vertex="1" parent="1">
                    <mxGeometry x="55" y="170" width="110" height="80" as="geometry"/>
                </mxCell>
            </root>
        </mxGraphModel>
    </diagram>
</mxfile>